<svg xmlns="http://www.w3.org/2000/svg" viewBox="0 0 640.18 160.19"><defs><style>.a{fill:#fdfdfd;}.b{fill:#03d1b2;}.c{fill:#030303;}</style></defs><title>bulma-logo</title><path class="a" d="M51.08.09Q343.34.09,635.58,0c3.75,0,4.61.84,4.6,4.59q-.21,75.75,0,151.5c0,3.43-.67,4.1-4.1,4.1q-292.5-.16-585-.1c.75-1.89,2.67-2.39,4.13-3.37,17-11.41,34-22.82,51.15-34,3-2,3.41-3.11.68-5.78C95.59,105.72,84.42,94.26,73,83.06c-2.33-2.29-2.41-3.61,0-5.92,8.15-7.87,16-16.07,24.15-23.93,2.51-2.41,2.55-3.74,0-6.21C82.77,32.86,68.55,18.55,54.34,4.25,53.12,3,51.23,2.2,51.08.09ZM481.64,68.31c-6.59-12-12.94-23.43-19.26-34.93a36.18,36.18,0,0,0-5.91-8.61c-3.7-3.66-11-4.85-15.87-2.71S435,28.49,435,33.25q.07,48.24,0,96.47c0,6.62,3.13,9.39,10.47,9.37S456,136.21,456,129.65q0-31,0-62c0-1.33-.5-2.84.73-4.39,5.61,10.56,11.07,20.8,16.46,31.06,1.77,3.37,3.77,6.41,8.06,6.51,4.53.12,6.7-3,8.63-6.47q7.49-13.51,15.14-26.95c.46-.81.44-2.41,2.34-2q0,32,0,64c0,6.8,3,9.58,10.3,9.68,7.51.09,10.69-2.76,10.7-9.7q0-41,0-82c0-5.67,0-11.33-.11-17-.06-4.57-2.43-7.47-6.72-8.84-5.65-1.8-12.6.15-16.21,4.85a69.06,69.06,0,0,0-5.3,8.43C493.94,45.87,487.91,56.92,481.64,68.31ZM229.82,75.56c11.28-9,14.89-18.49,12.58-32.25-2-12-9-19.31-21.22-21.2-14.39-2.22-28.92-.92-43.39-.81-5.64.05-7.7,3-7.7,8.83q0,49.47,0,98.94c0,7.63,2.35,10,10.2,10q16.25.08,32.48,0c21.16-.08,32-10.35,33.05-31.5C246.48,94.2,245.2,81.61,229.82,75.56ZM337.91,67.7H338c0-12.5,0-25,0-37.49,0-6.6-3-9.28-10.7-9.07s-10.5,3-10.42,8.86c.31,23.32.11,46.65.14,70a42.87,42.87,0,0,1-.9,9.92c-1.35,5.69-4.77,9.73-10.46,10.9-11.4,2.36-23.93.55-24.32-17.7,0-1.5,0-3,0-4.5,0-23-.1-46,.08-69,0-4.77-2-7.11-6.3-8.06a18.61,18.61,0,0,0-9.84.45c-3.3,1.07-5,3.13-4.94,6.59.05,25.83-.37,51.66.27,77.47.46,18.43,9.23,28.72,25.87,32.64a53.74,53.74,0,0,0,21.33.72c19.62-3.28,29.54-14.31,30.09-34.25C338.19,92.7,337.91,80.19,337.91,67.7Zm278.35,71.39c10.25-.07,14.47-5.74,11.6-15.08q-14.42-46.91-28.81-93.8c-2.25-7.33-6.25-10.11-14.54-10.1s-12.12,2.82-14.4,10.24q-14.4,46.9-28.82,93.8c-2.87,9.34,1,14.6,10.81,14.95,4.37.15,7.28-1.33,8.39-6,1.33-5.48,3.14-10.84,4.59-16.3.62-2.33,1.45-3.61,4.29-3.55,10.16.2,20.33.18,30.49,0,2.51,0,3.54.86,4.14,3.1,1.51,5.62,3.33,11.15,4.71,16.79C609.78,137.52,612.41,139.25,616.26,139.09Zm-259.39-59v48c0,9,1.91,11,11.22,11q23.25,0,46.49,0c6.23,0,8.8-2.75,8.77-9.27s-2.5-9-9-9c-10.5,0-21-.23-31.5.1-4.29.13-5.13-1.27-5.11-5.29.17-28.5.11-57,.08-85.49,0-6.5-3.18-9.09-10.82-9-7.38.09-10.16,2.52-10.16,9Q356.84,55.12,356.87,80.12Z"/><path class="b" d="M51.08.09c.15,2.11,2,2.93,3.26,4.16C68.55,18.55,82.77,32.86,97.15,47c2.52,2.47,2.48,3.8,0,6.21C89,61.07,81.12,69.27,73,77.14c-2.39,2.31-2.31,3.63,0,5.92,11.43,11.2,22.6,22.66,34.05,33.83,2.73,2.67,2.32,3.81-.68,5.78-17.13,11.23-34.14,22.64-51.15,34.05-1.46,1-3.38,1.48-4.13,3.37h-2c.21-1.22-.79-1.73-1.46-2.4Q25.08,135.1,2.49,112.56c-.67-.67-1.19-1.67-2.41-1.47v-7c1.24-.44,1-1.58,1.13-2.5C3.86,83.18,6.55,64.77,9.1,46.35,9.66,42.28,10.91,39,14,35.94c10.9-10.49,21.5-21.3,32.15-32C47.3,2.78,49,2.05,49.08.09Z"/><path class="a" d="M49.08.09c0,2-1.78,2.69-2.89,3.8C35.54,14.64,24.94,25.45,14,35.94c-3.13,3-4.38,6.34-4.94,10.41C6.55,64.77,3.86,83.18,1.21,101.59c-.13.92.11,2.06-1.13,2.5,0-33.5.05-67-.08-100.5C0,.61.6,0,3.59,0,18.75.2,33.92.09,49.08.09Z"/><path class="a" d="M.08,111.09c1.22-.2,1.74.8,2.41,1.47q22.57,22.55,45.13,45.13c.67.67,1.67,1.18,1.46,2.4-15.33,0-30.66-.06-46,.07-2.51,0-3.09-.56-3.07-3.07C.15,141.76.08,126.43.08,111.09Z"/><path class="c" d="M481.64,68.31c6.27-11.39,12.3-22.44,18.42-33.44a69.06,69.06,0,0,1,5.3-8.43c3.61-4.7,10.56-6.65,16.21-4.85,4.29,1.37,6.66,4.27,6.72,8.84.08,5.66.1,11.32.11,17q0,41,0,82c0,6.94-3.19,9.79-10.7,9.7-7.29-.1-10.29-2.88-10.3-9.68q0-32,0-64c-1.9-.42-1.88,1.18-2.34,2q-7.63,13.44-15.14,26.95c-1.93,3.49-4.1,6.59-8.63,6.47-4.29-.1-6.29-3.14-8.06-6.51-5.39-10.26-10.85-20.5-16.46-31.06-1.23,1.55-.73,3.06-.73,4.39q-.06,31,0,62c0,6.56-3.22,9.41-10.53,9.44S435,136.34,435,129.72q0-48.24,0-96.47c0-4.76.63-9,5.62-11.19s12.17-.95,15.87,2.71a36.18,36.18,0,0,1,5.91,8.61C468.7,44.88,475.05,56.36,481.64,68.31Z"/><path class="c" d="M229.82,75.56c15.38,6,16.66,18.64,16,32-1.06,21.15-11.89,31.42-33.05,31.5q-16.23.06-32.48,0c-7.85,0-10.2-2.4-10.2-10q0-49.47,0-98.94c0-5.85,2.06-8.78,7.7-8.83,14.47-.11,29-1.41,43.39.81,12.25,1.89,19.21,9.15,21.22,21.2C244.71,57.07,241.1,66.58,229.82,75.56ZM191,101.84c0,1.66,0,3.33,0,5,.09,4.47-1.5,10.47.77,13,2.65,2.94,8.77.88,13.37.91,15.09.1,20.37-5.46,19.72-20.58a37,37,0,0,0-.76-5.92c-1.21-6-4.54-9.21-10.61-10.32-6.6-1.21-13.28-.29-19.91-.63-2.46-.12-2.63,1.2-2.61,3.08C191,91.53,191,96.68,191,101.84Zm.36-48.54H191c0,3.65.11,7.3,0,11-.09,2.21.73,2.84,2.87,2.79,5.31-.15,10.63.1,15.93-.15,6.38-.29,9.95-3.28,11.5-9.07,2.88-10.72-2.56-18.23-13.62-18.35-5.42,0-11.77-2-15.91,1C189.62,42,191.35,48.84,191.35,53.3Z"/><path class="c" d="M337.91,67.7c0,12.49.28,25-.07,37.48-.55,19.94-10.47,31-30.09,34.25a53.74,53.74,0,0,1-21.33-.72c-16.64-3.92-25.41-14.21-25.87-32.64-.64-25.81-.22-51.64-.27-77.47,0-3.46,1.64-5.52,4.94-6.59a18.61,18.61,0,0,1,9.84-.45c4.3,1,6.34,3.29,6.3,8.06-.18,23-.08,46-.08,69,0,1.5,0,3,0,4.5.39,18.25,12.92,20.06,24.32,17.7,5.69-1.17,9.11-5.21,10.46-10.9A42.87,42.87,0,0,0,317,100c0-23.33.17-46.66-.14-70-.08-5.87,2.63-8.65,10.42-8.86S338,23.61,338,30.21c0,12.49,0,25,0,37.49Z"/><path class="c" d="M616.26,139.09c-3.85.16-6.48-1.57-7.55-5.9-1.38-5.64-3.2-11.17-4.71-16.79-.6-2.24-1.63-3.15-4.14-3.1-10.16.17-20.33.19-30.49,0-2.84-.06-3.67,1.22-4.29,3.55-1.45,5.46-3.26,10.82-4.59,16.3-1.11,4.63-4,6.11-8.39,6-9.85-.35-13.68-5.61-10.81-14.95q14.41-46.91,28.82-93.8c2.28-7.42,6.22-10.24,14.4-10.24s12.29,2.77,14.54,10.1q14.4,46.9,28.81,93.8C630.73,133.35,626.51,139,616.26,139.09ZM598.51,96.86c-4.6-16.25-9.12-32.2-14-49.46-4.88,17.29-9.39,33.23-14,49.46Z"/><path class="c" d="M356.87,80.12q0-25,0-50c0-6.51,2.78-8.94,10.16-9,7.64-.08,10.82,2.51,10.82,9,0,28.49.09,57-.08,85.49,0,4,.82,5.42,5.11,5.29,10.49-.33,21-.13,31.5-.1,6.46,0,8.92,2.54,9,9s-2.54,9.27-8.77,9.27q-23.25,0-46.49,0c-9.31,0-11.22-1.93-11.22-11Z"/><path class="a" d="M191,101.84c0-5.16,0-10.31,0-15.47,0-1.88.15-3.2,2.61-3.08,6.63.34,13.31-.58,19.91.63,6.07,1.11,9.4,4.35,10.61,10.32a37,37,0,0,1,.76,5.92c.65,15.12-4.63,20.68-19.72,20.58-4.6,0-10.72,2-13.37-.91-2.27-2.53-.68-8.53-.77-13C191,105.17,191,103.5,191,101.84Z"/><path class="a" d="M191.35,53.3c0-4.46-1.73-11.34.37-12.85,4.14-3,10.49-1,15.91-1,11.06.12,16.5,7.63,13.62,18.35-1.55,5.79-5.12,8.78-11.5,9.07-5.3.25-10.62,0-15.93.15-2.14,0-3-.58-2.87-2.79.15-3.65,0-7.3,0-11Z"/><path class="a" d="M598.51,96.86h-28c4.58-16.23,9.09-32.17,14-49.46C589.39,64.66,593.91,80.61,598.51,96.86Z"/></svg>