<svg xmlns="http://www.w3.org/2000/svg" viewBox="0 0 543.39 181.23"><defs><style>.a{fill:#41b783;}.b{fill:#35495e;}.c{fill:#3c8070;}.d{fill:#3e5165;}.e{fill:#3c5064;}</style></defs><title>nuxt</title><path class="a" d="M69.28,179.48c-22.16.06-44.32.08-66.47.2-4.61,0-2.38-2.22-1.4-3.9q18.33-31.53,36.72-63Q69.71,58.65,101.29,4.5C102,3.22,102.88,2,104.16,0c11.89,20.13,23.52,39.8,35.14,59.48l-1,1.32c-5.06,8.79-10.08,17.6-15.19,26.37Q96.2,133.34,69.28,179.48Z"/><path class="b" d="M69.28,179.48q26.89-46.15,53.8-92.31c5.11-8.77,10.13-17.58,15.19-26.37,1.19-.06,1.72.71,2.25,1.62,3.41,5.88,6.88,11.73,10.3,17.6q22.16,38.06,44.26,76.11c4.46,7.73,9.67,15.05,13.06,23.38Z"/><path class="c" d="M208.14,179.51c-3.39-8.33-8.6-15.65-13.06-23.38Q173,118,150.82,80c-3.42-5.87-6.89-11.72-10.3-17.6-.53-.91-1.06-1.68-2.25-1.62l1-1.32,17.4-29,87.36,149Z"/><path class="d" d="M291.37,110V124.8q0,25.49,0,51c0,1.83.78,4-2.67,4s-2.52-2.42-2.52-4.17q-.07-35,.05-69.95c0-1.64-1.58-4.31,1.52-5,2.61-.56,4.54.18,6.1,2.86,12.25,21,24.69,41.87,37.07,62.78.81,1.36,1.66,2.69,3,4.82V155q0-25.24,0-50.47c0-1.84-.76-4.07,2.68-4s2.51,2.43,2.51,4.18q.07,35-.05,69.95c0,1.63,1.6,4.31-1.53,5-2.59.54-4.54-.14-6.11-2.84-12.24-21-24.68-41.87-37.07-62.78C293.51,112.63,293.14,110.93,291.37,110Z"/><path class="e" d="M363,128.66q0-12.25,0-24.5c0-1.85-.31-3.58,2.63-3.6s2.69,1.61,2.69,3.52c.06,15.49.1,31,.25,46.47a37.65,37.65,0,0,0,1.48,10.36c2.81,9.46,9.33,14.54,19,14.68,10.26.14,17.28-4.85,20.3-14.38,1.57-5,1.8-10.14,1.8-15.31,0-13.67,0-27.33.05-41,0-1.67-1.19-4.2,2.33-4.31,3.92-.13,2.64,2.67,2.65,4.49q.12,23,0,46a43.08,43.08,0,0,1-.8,7.93c-3.63,18.75-22.65,27.77-39.46,18.62-9.62-5.24-12.33-14.45-12.79-24.48-.38-8.14-.08-16.32-.08-24.48Z"/><path class="d" d="M429.8,179.22c7.17-12.32,14-24.31,21.12-36.11,1.87-3.1,2-5.34.11-8.5-6.62-10.93-12.9-22.07-19.42-33.31,4.22-1.66,6.23-.15,8.1,3.29,5.42,9.89,10.64,19.92,17.3,30,3.24-5.76,6.22-11.05,9.19-16.35,2.61-4.65,5.19-9.31,7.8-14,2.12-3.8,2.13-3.8,7.63-3.26-5.07,8.83-9.31,18-15.17,25.92-6.38,8.65-6.13,15.65.15,24.23,6.16,8.41,10.75,18,16,27a3.69,3.69,0,0,1,.22,1c-3.72,1.34-5.92.08-7.82-3.43-5.13-9.52-10.62-18.85-16-28.21-.79-1.38-1.28-3.06-3.15-4.07-6.15,10.86-12.41,21.58-18.3,32.5C435.81,179.27,433.8,180.37,429.8,179.22Z"/><path class="e" d="M518.11,142.65c0,10.49.12,21-.11,31.48,0,1.88,2.15,5.41-2.49,5.55s-2.74-3.39-2.75-5.32c-.13-21.15-.23-42.3,0-63.45.05-4.47-1.17-5.72-5.52-5.42-5.64.39-11.32.05-17,.12-2,0-3.1-.37-3.06-2.73s1.39-2.25,3-2.24q25.23,0,50.47,0c1.78,0,2.75.36,2.72,2.45s-.85,2.56-2.71,2.54c-6.33-.07-12.67.11-19-.08-2.85-.09-3.68.81-3.64,3.65C518.2,120.34,518.11,131.49,518.11,142.65Z"/></svg>